<svg width="242" height="242" viewBox="0 0 242 242" fill="none" xmlns="http://www.w3.org/2000/svg">
<rect width="242" height="242" fill="#34BAF8"/>
<path d="M62.6665 47.7849H33.7453V56.1182H58.7445V66.9024H33.7453V75.2357H62.6665V86.0199H28.3529L21 78.667V37H62.6671V47.7843L62.6665 47.7849ZM108.254 37.0019L115.607 44.3548V78.6684L108.254 86.0213H72.4699V37.0026H108.254V37.0019ZM102.862 75.2364V47.7855H85.214V75.2364H102.862ZM156.293 47.7849H138.157V75.2359H156.784V66.9026H145.51V56.1184H169.529V78.6676L162.176 86.0205H132.764L125.411 78.6676V44.3539L132.764 37.001H162.176L169.529 44.3539V51.7068H160.215L156.293 47.7849ZM220.999 47.7849H192.078V56.1182H217.077V66.9024H192.078V75.2357H220.999V86.0199H186.686L179.333 78.667V37H221V47.7843L220.999 47.7849Z" fill="#ECF0F1"/>
<path d="M21 119.784V96H112.893V119.784H80.8932V204.109H52.785V119.784H21.0011H21ZM123.703 204.109V191.136L153.541 150.056L123.703 108.975V96.0019H148.568L172.351 130.597L196.135 96.0019H221V108.975L191.162 150.056L221 191.136V204.109H196.135L172.351 169.514L148.568 204.109H123.703Z" fill="#ECF0F1"/>
</svg>
